<svg version="1.1" id="Layer_1" xmlns="http://www.w3.org/2000/svg" xmlns:xlink="http://www.w3.org/1999/xlink" x="0px" y="0px"
	 width="100%" viewBox="0 0 1280 720" enable-background="new 0 0 1280 720" xml:space="preserve">
<path fill="#000000" opacity="1.000000" stroke="none" 
	d="
M833.000000,721.000000 
	C555.367920,721.000000 278.235901,721.000000 1.051915,721.000000 
	C1.051915,481.064575 1.051915,241.129166 1.051915,1.096869 
	C427.548798,1.096869 854.097656,1.096869 1280.823242,1.096869 
	C1280.823242,240.999893 1280.823242,480.999939 1280.823242,721.000000 
	C1131.795776,721.000000 982.647888,721.000000 833.000000,721.000000 
M730.399414,327.807556 
	C733.978882,320.078674 734.458862,312.086243 731.798523,304.070831 
	C728.367004,293.731934 720.405457,287.945740 710.013000,284.388092 
	C711.031677,283.524292 711.485291,283.089905 711.987183,282.721466 
	C722.125427,275.278748 726.218262,264.854675 723.408691,253.607086 
	C720.427307,241.671997 712.118042,234.003693 698.968994,233.018234 
	C687.749207,232.177368 676.416443,232.844391 665.164734,232.844391 
	C665.164734,270.485535 665.164734,308.660950 665.164734,346.854675 
	C676.319092,346.854675 687.143188,347.129852 697.947449,346.785645 
	C711.748352,346.345917 723.136353,341.225128 730.399414,327.807556 
M600.305176,247.057770 
	C598.576233,243.298111 596.965454,239.477097 595.059692,235.809326 
	C594.309326,234.365295 592.900330,233.263519 591.791260,232.005890 
	C590.826660,233.205460 589.583313,234.272110 588.938599,235.624191 
	C575.610168,263.575256 562.332886,291.550720 549.085938,319.540497 
	C544.856201,328.477631 540.742737,337.469696 536.310791,347.007538 
	C539.129700,347.007538 541.288818,346.729614 543.347961,347.065277 
	C547.664307,347.768829 549.772217,346.002808 551.484436,342.024292 
	C555.741760,332.132202 560.650208,322.522369 565.081238,312.701782 
	C566.355347,309.877960 567.945923,308.883331 571.084290,308.926086 
	C584.914429,309.114594 598.749329,309.078308 612.580811,308.948669 
	C615.394043,308.922302 616.883850,309.626801 618.136230,312.392639 
	C622.857666,322.819580 628.112915,333.005066 632.819824,343.438171 
	C634.155945,346.399750 635.752808,347.358398 638.789795,347.058746 
	C641.320984,346.808990 643.896423,347.007538 646.975220,347.007538 
	C631.336914,313.446259 616.020020,280.574738 600.305176,247.057770 
M775.926453,274.627716 
	C772.483704,270.854645 768.212646,267.549347 765.764587,263.214508 
	C760.067993,253.127533 766.510071,241.781906 777.845215,241.091766 
	C783.357178,240.756165 788.423279,242.245193 792.481201,246.163116 
	C795.319031,248.902969 797.939941,251.867554 800.787537,254.868530 
	C803.782837,252.525574 806.752930,250.202286 810.114563,247.572754 
	C806.208008,243.495087 802.941223,239.442749 799.042419,236.135513 
	C787.126465,226.027481 768.434814,227.010986 758.872070,237.957977 
	C748.326965,250.029526 749.574280,266.506195 762.046021,277.966705 
	C765.715393,281.338562 769.813049,284.241028 773.534729,287.560089 
	C780.717651,293.966003 788.182129,300.137939 794.681946,307.188507 
	C797.333069,310.064270 798.743469,314.907959 799.022095,318.972595 
	C799.575256,327.042603 795.239685,332.913422 787.960388,336.230835 
	C779.709778,339.990814 771.608643,339.550049 764.832947,333.128357 
	C760.791138,329.297821 757.552917,324.619263 753.691833,320.009613 
	C750.960815,321.657684 747.881287,323.516083 744.067261,325.817719 
	C747.870300,330.688171 751.061951,335.582672 755.040100,339.721130 
	C767.761414,352.955139 789.074951,353.174683 802.178345,340.514740 
	C815.099426,328.031006 815.286926,309.955597 801.655457,296.191132 
	C793.979980,288.440735 784.953735,282.028137 775.926453,274.627716 
M699.098267,481.376007 
	C713.698425,498.421814 731.539001,498.908142 753.318604,482.338074 
	C753.318604,486.154175 753.318604,489.494659 753.318604,492.750793 
	C756.573242,492.750793 759.163574,492.750793 761.855957,492.750793 
	C761.855957,461.384857 761.855957,430.281464 761.855957,399.114014 
	C758.936035,399.114014 756.182739,399.114014 752.928223,399.114014 
	C752.928223,411.573608 752.928223,423.732422 752.928223,435.338776 
	C748.575806,432.210846 744.637451,428.465027 739.978516,426.204315 
	C726.143372,419.490906 709.402771,423.939484 699.185242,436.444214 
	C688.812378,449.139099 688.612732,467.115173 699.098267,481.376007 
M476.954559,483.147339 
	C476.514740,486.353027 476.074921,489.558716 475.644501,492.695984 
	C478.287018,492.695984 480.371735,492.695984 482.514160,492.695984 
	C484.065125,482.291321 485.570892,472.190094 487.126953,461.751343 
	C492.545868,461.751343 497.450012,461.751343 502.251190,461.751343 
	C502.251190,459.381592 502.251190,457.449402 502.251190,455.040192 
	C497.391663,455.040192 492.829926,455.040192 487.996887,455.040192 
	C489.114258,447.850464 490.150940,441.179871 491.208374,434.375671 
	C496.354034,434.375671 500.987213,434.375671 505.817261,434.375671 
	C505.817261,432.059021 505.817261,429.961914 505.817261,427.349182 
	C501.240967,427.349182 496.814911,427.349182 492.185760,427.349182 
	C493.604401,417.346222 494.947510,407.875732 496.279724,398.482086 
	C493.522156,398.482086 491.441010,398.482086 489.384949,398.482086 
	C487.897400,408.298096 486.460541,417.779755 485.037170,427.172455 
	C477.924103,427.172455 471.355255,427.172455 464.425323,427.172455 
	C465.821655,417.376678 467.166718,407.940491 468.530457,398.373352 
	C465.948914,398.373352 464.026093,398.373352 461.956940,398.373352 
	C460.456238,408.068756 458.986725,417.562836 457.443695,427.531799 
	C451.834473,427.531799 446.451263,427.531799 441.109680,427.531799 
	C441.109680,430.168060 441.109680,432.258057 441.109680,434.659180 
	C446.171021,434.659180 450.933746,434.659180 456.310028,434.659180 
	C455.255463,441.681702 454.261414,448.301208 453.226898,455.190338 
	C447.642181,455.190338 442.528564,455.190338 437.166199,455.190338 
	C437.166199,457.581757 437.166199,459.627930 437.166199,462.182190 
	C442.226685,462.182190 447.092377,462.182190 452.176758,462.182190 
	C450.613129,472.680511 449.128326,482.649475 447.627472,492.726196 
	C450.176392,492.726196 452.242950,492.726196 454.445404,492.726196 
	C456.032684,482.358765 457.579987,472.252441 459.106110,462.284363 
	C466.331390,462.284363 473.057281,462.284363 479.962067,462.284363 
	C478.945770,469.137848 477.971863,475.705353 476.954559,483.147339 
M818.920959,486.029297 
	C800.740479,487.964264 786.189331,475.350708 788.674561,459.333984 
	C808.648682,459.333984 828.690918,459.333984 848.712463,459.333984 
	C849.346680,440.593689 836.767700,426.000275 818.020081,423.290039 
	C801.095215,420.843292 784.420410,432.347839 780.128418,449.432800 
	C775.687866,467.109528 784.666077,486.200928 800.185547,492.082489 
	C818.980286,499.205261 837.599487,492.072021 846.500366,474.129761 
	C844.220947,472.925171 841.937500,471.718445 839.749756,470.562286 
	C830.394043,482.196075 829.619629,482.785461 818.920959,486.029297 
M472.904480,346.824524 
	C491.181122,346.824524 509.457764,346.824524 527.755798,346.824524 
	C527.755798,343.047668 527.755798,339.523315 527.755798,335.624939 
	C513.023193,335.624939 498.620911,335.624939 483.890259,335.624939 
	C483.890259,300.971161 483.890259,266.702393 483.890259,232.362305 
	C479.855316,232.362305 476.168182,232.362305 472.332794,232.362305 
	C472.332794,270.518524 472.332794,308.297791 472.904480,346.824524 
M657.821899,426.621979 
	C643.081543,420.666718 629.592407,422.222778 617.671326,433.285034 
	C605.559448,444.524261 603.485901,465.318512 612.871704,479.053192 
	C624.224304,495.665894 644.147522,497.991577 658.290771,490.915894 
	C670.989746,484.562805 677.460571,473.535461 677.709900,459.521851 
	C677.967712,445.033325 671.173035,434.116730 657.821899,426.621979 
M579.424438,427.004456 
	C571.137512,423.351715 562.585815,422.493835 553.631958,423.968445 
	C530.144226,427.836700 516.733337,454.942352 528.132141,475.769104 
	C536.386230,490.850128 554.723450,498.134338 572.335388,493.347412 
	C580.826904,491.039398 588.041443,486.935699 593.139160,479.151642 
	C590.573608,477.514740 588.407288,476.132538 586.326538,474.804932 
	C572.205017,490.812073 551.523315,488.744232 541.135986,478.522034 
	C530.630981,468.184082 530.144348,451.572906 539.960632,440.672394 
	C551.432129,427.933899 569.427124,428.822083 586.731934,443.034943 
	C588.783508,441.751282 590.852356,440.456787 594.239868,438.337189 
	C589.058655,434.259705 584.600586,430.751282 579.424438,427.004456 
z"/>
<path fill="#FCFCFC" opacity="1.000000" stroke="none" 
	d="
M730.213440,328.135864 
	C723.136353,341.225128 711.748352,346.345917 697.947449,346.785645 
	C687.143188,347.129852 676.319092,346.854675 665.164734,346.854675 
	C665.164734,308.660950 665.164734,270.485535 665.164734,232.844391 
	C676.416443,232.844391 687.749207,232.177368 698.968994,233.018234 
	C712.118042,234.003693 720.427307,241.671997 723.408691,253.607086 
	C726.218262,264.854675 722.125427,275.278748 711.987183,282.721466 
	C711.485291,283.089905 711.031677,283.524292 710.013000,284.388092 
	C720.405457,287.945740 728.367004,293.731934 731.798523,304.070831 
	C734.458862,312.086243 733.978882,320.078674 730.213440,328.135864 
M719.148499,304.530670 
	C716.247742,299.101593 711.712830,295.128204 705.864868,294.109680 
	C696.178833,292.422577 686.304749,291.815552 676.273926,290.727936 
	C676.273926,306.431366 676.273926,320.956726 676.273926,336.230011 
	C685.320190,335.755432 694.141846,335.890411 702.782776,334.706543 
	C717.690186,332.664124 725.171204,318.999573 719.148499,304.530670 
M710.153015,251.667099 
	C707.035156,249.384552 704.183777,245.777985 700.745789,245.085953 
	C692.776001,243.481735 684.522522,243.286285 676.301636,242.511948 
	C676.301636,255.765884 676.301636,267.790344 676.301636,280.417908 
	C682.895081,279.936615 689.212646,279.887695 695.392273,278.939667 
	C708.793579,276.883789 715.391907,265.041107 710.153015,251.667099 
z"/>
<path fill="#FBFBFB" opacity="1.000000" stroke="none" 
	d="
M600.504150,247.380508 
	C616.020020,280.574738 631.336914,313.446259 646.975220,347.007538 
	C643.896423,347.007538 641.320984,346.808990 638.789795,347.058746 
	C635.752808,347.358398 634.155945,346.399750 632.819824,343.438171 
	C628.112915,333.005066 622.857666,322.819580 618.136230,312.392639 
	C616.883850,309.626801 615.394043,308.922302 612.580811,308.948669 
	C598.749329,309.078308 584.914429,309.114594 571.084290,308.926086 
	C567.945923,308.883331 566.355347,309.877960 565.081238,312.701782 
	C560.650208,322.522369 555.741760,332.132202 551.484436,342.024292 
	C549.772217,346.002808 547.664307,347.768829 543.347961,347.065277 
	C541.288818,346.729614 539.129700,347.007538 536.310791,347.007538 
	C540.742737,337.469696 544.856201,328.477631 549.085938,319.540497 
	C562.332886,291.550720 575.610168,263.575256 588.938599,235.624191 
	C589.583313,234.272110 590.826660,233.205460 591.791260,232.005890 
	C592.900330,233.263519 594.309326,234.365295 595.059692,235.809326 
	C596.965454,239.477097 598.576233,243.298111 600.504150,247.380508 
M605.395691,285.094757 
	C601.012939,275.780060 596.630127,266.465393 591.901001,256.414490 
	C585.104736,270.823151 578.810486,284.167633 572.411438,297.734131 
	C585.776123,297.734131 598.314575,297.734131 611.341553,297.734131 
	C609.362183,293.472504 607.568970,289.611603 605.395691,285.094757 
z"/>
<path fill="#FAFAFA" opacity="1.000000" stroke="none" 
	d="
M776.231201,274.820312 
	C784.953735,282.028137 793.979980,288.440735 801.655457,296.191132 
	C815.286926,309.955597 815.099426,328.031006 802.178345,340.514740 
	C789.074951,353.174683 767.761414,352.955139 755.040100,339.721130 
	C751.061951,335.582672 747.870300,330.688171 744.067261,325.817719 
	C747.881287,323.516083 750.960815,321.657684 753.691833,320.009613 
	C757.552917,324.619263 760.791138,329.297821 764.832947,333.128357 
	C771.608643,339.550049 779.709778,339.990814 787.960388,336.230835 
	C795.239685,332.913422 799.575256,327.042603 799.022095,318.972595 
	C798.743469,314.907959 797.333069,310.064270 794.681946,307.188507 
	C788.182129,300.137939 780.717651,293.966003 773.534729,287.560089 
	C769.813049,284.241028 765.715393,281.338562 762.046021,277.966705 
	C749.574280,266.506195 748.326965,250.029526 758.872070,237.957977 
	C768.434814,227.010986 787.126465,226.027481 799.042419,236.135513 
	C802.941223,239.442749 806.208008,243.495087 810.114563,247.572754 
	C806.752930,250.202286 803.782837,252.525574 800.787537,254.868530 
	C797.939941,251.867554 795.319031,248.902969 792.481201,246.163116 
	C788.423279,242.245193 783.357178,240.756165 777.845215,241.091766 
	C766.510071,241.781906 760.067993,253.127533 765.764587,263.214508 
	C768.212646,267.549347 772.483704,270.854645 776.231201,274.820312 
z"/>
<path fill="#F8F8F8" opacity="1.000000" stroke="none" 
	d="
M698.895447,481.084595 
	C688.612732,467.115173 688.812378,449.139099 699.185242,436.444214 
	C709.402771,423.939484 726.143372,419.490906 739.978516,426.204315 
	C744.637451,428.465027 748.575806,432.210846 752.928223,435.338776 
	C752.928223,423.732422 752.928223,411.573608 752.928223,399.114014 
	C756.182739,399.114014 758.936035,399.114014 761.855957,399.114014 
	C761.855957,430.281464 761.855957,461.384857 761.855957,492.750793 
	C759.163574,492.750793 756.573242,492.750793 753.318604,492.750793 
	C753.318604,489.494659 753.318604,486.154175 753.318604,482.338074 
	C731.539001,498.908142 713.698425,498.421814 698.895447,481.084595 
M703.041504,471.199707 
	C703.958557,472.580994 704.827393,473.997253 705.800293,475.338043 
	C714.044922,486.700684 728.474792,489.824677 740.720459,482.918091 
	C752.395935,476.333099 757.296143,460.552582 751.666626,447.667175 
	C746.275024,435.326233 732.238892,428.842102 719.423462,432.772156 
	C703.603333,437.623627 696.317322,454.098785 703.041504,471.199707 
z"/>
<path fill="#F5F5F5" opacity="1.000000" stroke="none" 
	d="
M476.976257,482.710114 
	C477.971863,475.705353 478.945770,469.137848 479.962067,462.284363 
	C473.057281,462.284363 466.331390,462.284363 459.106110,462.284363 
	C457.579987,472.252441 456.032684,482.358765 454.445404,492.726196 
	C452.242950,492.726196 450.176392,492.726196 447.627472,492.726196 
	C449.128326,482.649475 450.613129,472.680511 452.176758,462.182190 
	C447.092377,462.182190 442.226685,462.182190 437.166199,462.182190 
	C437.166199,459.627930 437.166199,457.581757 437.166199,455.190338 
	C442.528564,455.190338 447.642181,455.190338 453.226898,455.190338 
	C454.261414,448.301208 455.255463,441.681702 456.310028,434.659180 
	C450.933746,434.659180 446.171021,434.659180 441.109680,434.659180 
	C441.109680,432.258057 441.109680,430.168060 441.109680,427.531799 
	C446.451263,427.531799 451.834473,427.531799 457.443695,427.531799 
	C458.986725,417.562836 460.456238,408.068756 461.956940,398.373352 
	C464.026093,398.373352 465.948914,398.373352 468.530457,398.373352 
	C467.166718,407.940491 465.821655,417.376678 464.425323,427.172455 
	C471.355255,427.172455 477.924103,427.172455 485.037170,427.172455 
	C486.460541,417.779755 487.897400,408.298096 489.384949,398.482086 
	C491.441010,398.482086 493.522156,398.482086 496.279724,398.482086 
	C494.947510,407.875732 493.604401,417.346222 492.185760,427.349182 
	C496.814911,427.349182 501.240967,427.349182 505.817261,427.349182 
	C505.817261,429.961914 505.817261,432.059021 505.817261,434.375671 
	C500.987213,434.375671 496.354034,434.375671 491.208374,434.375671 
	C490.150940,441.179871 489.114258,447.850464 487.996887,455.040192 
	C492.829926,455.040192 497.391663,455.040192 502.251190,455.040192 
	C502.251190,457.449402 502.251190,459.381592 502.251190,461.751343 
	C497.450012,461.751343 492.545868,461.751343 487.126953,461.751343 
	C485.570892,472.190094 484.065125,482.291321 482.514160,492.695984 
	C480.371735,492.695984 478.287018,492.695984 475.644501,492.695984 
	C476.074921,489.558716 476.514740,486.353027 476.976257,482.710114 
M480.083893,455.115387 
	C481.513367,448.367157 482.942871,441.618958 484.394073,434.768127 
	C476.670929,434.768127 469.961517,434.768127 463.161957,434.768127 
	C462.134613,441.582123 461.152496,448.096344 460.088013,455.156677 
	C466.621216,455.156677 472.887512,455.156677 480.083893,455.115387 
z"/>
<path fill="#F9F9F9" opacity="1.000000" stroke="none" 
	d="
M819.354614,485.970795 
	C829.619629,482.785461 830.394043,482.196075 839.749756,470.562286 
	C841.937500,471.718445 844.220947,472.925171 846.500366,474.129761 
	C837.599487,492.072021 818.980286,499.205261 800.185547,492.082489 
	C784.666077,486.200928 775.687866,467.109528 780.128418,449.432800 
	C784.420410,432.347839 801.095215,420.843292 818.020081,423.290039 
	C836.767700,426.000275 849.346680,440.593689 848.712463,459.333984 
	C828.690918,459.333984 808.648682,459.333984 788.674561,459.333984 
	C786.189331,475.350708 800.740479,487.964264 819.354614,485.970795 
M827.180969,435.083588 
	C810.062683,426.801239 792.199829,434.713501 789.393372,451.845734 
	C805.856079,451.845734 822.314026,451.845734 839.062256,451.845734 
	C837.559875,444.646729 834.075439,439.125427 827.180969,435.083588 
z"/>
<path fill="#F7F7F7" opacity="1.000000" stroke="none" 
	d="
M472.618652,346.450806 
	C472.332794,308.297791 472.332794,270.518524 472.332794,232.362305 
	C476.168182,232.362305 479.855316,232.362305 483.890259,232.362305 
	C483.890259,266.702393 483.890259,300.971161 483.890259,335.624939 
	C498.620911,335.624939 513.023193,335.624939 527.755798,335.624939 
	C527.755798,339.523315 527.755798,343.047668 527.755798,346.824524 
	C509.457764,346.824524 491.181122,346.824524 472.618652,346.450806 
z"/>
<path fill="#F9F9F9" opacity="1.000000" stroke="none" 
	d="
M658.153076,426.799316 
	C671.173035,434.116730 677.967712,445.033325 677.709900,459.521851 
	C677.460571,473.535461 670.989746,484.562805 658.290771,490.915894 
	C644.147522,497.991577 624.224304,495.665894 612.871704,479.053192 
	C603.485901,465.318512 605.559448,444.524261 617.671326,433.285034 
	C629.592407,422.222778 643.081543,420.666718 658.153076,426.799316 
M633.983093,433.125000 
	C614.135254,440.593414 610.065552,465.312408 623.953613,478.923859 
	C633.033936,487.823395 647.490234,488.785004 657.371033,481.545807 
	C668.547852,473.357178 672.073242,459.335358 666.062500,446.977356 
	C660.295898,435.121552 647.419983,429.353668 633.983093,433.125000 
z"/>
<path fill="#F8F8F8" opacity="1.000000" stroke="none" 
	d="
M579.783447,427.123657 
	C584.600586,430.751282 589.058655,434.259705 594.239868,438.337189 
	C590.852356,440.456787 588.783508,441.751282 586.731934,443.034943 
	C569.427124,428.822083 551.432129,427.933899 539.960632,440.672394 
	C530.144348,451.572906 530.630981,468.184082 541.135986,478.522034 
	C551.523315,488.744232 572.205017,490.812073 586.326538,474.804932 
	C588.407288,476.132538 590.573608,477.514740 593.139160,479.151642 
	C588.041443,486.935699 580.826904,491.039398 572.335388,493.347412 
	C554.723450,498.134338 536.386230,490.850128 528.132141,475.769104 
	C516.733337,454.942352 530.144226,427.836700 553.631958,423.968445 
	C562.585815,422.493835 571.137512,423.351715 579.783447,427.123657 
z"/>
<path fill="#030303" opacity="1.000000" stroke="none" 
	d="
M719.362427,304.843018 
	C725.171204,318.999573 717.690186,332.664124 702.782776,334.706543 
	C694.141846,335.890411 685.320190,335.755432 676.273926,336.230011 
	C676.273926,320.956726 676.273926,306.431366 676.273926,290.727936 
	C686.304749,291.815552 696.178833,292.422577 705.864868,294.109680 
	C711.712830,295.128204 716.247742,299.101593 719.362427,304.843018 
z"/>
<path fill="#030303" opacity="1.000000" stroke="none" 
	d="
M710.373596,251.989319 
	C715.391907,265.041107 708.793579,276.883789 695.392273,278.939667 
	C689.212646,279.887695 682.895081,279.936615 676.301636,280.417908 
	C676.301636,267.790344 676.301636,255.765884 676.301636,242.511948 
	C684.522522,243.286285 692.776001,243.481735 700.745789,245.085953 
	C704.183777,245.777985 707.035156,249.384552 710.373596,251.989319 
z"/>
<path fill="#030303" opacity="1.000000" stroke="none" 
	d="
M605.585693,285.422729 
	C607.568970,289.611603 609.362183,293.472504 611.341553,297.734131 
	C598.314575,297.734131 585.776123,297.734131 572.411438,297.734131 
	C578.810486,284.167633 585.104736,270.823151 591.901001,256.414490 
	C596.630127,266.465393 601.012939,275.780060 605.585693,285.422729 
z"/>
<path fill="#020202" opacity="1.000000" stroke="none" 
	d="
M702.891846,470.845703 
	C696.317322,454.098785 703.603333,437.623627 719.423462,432.772156 
	C732.238892,428.842102 746.275024,435.326233 751.666626,447.667175 
	C757.296143,460.552582 752.395935,476.333099 740.720459,482.918091 
	C728.474792,489.824677 714.044922,486.700684 705.800293,475.338043 
	C704.827393,473.997253 703.958557,472.580994 702.891846,470.845703 
z"/>
<path fill="#070707" opacity="1.000000" stroke="none" 
	d="
M479.618835,455.136047 
	C472.887512,455.156677 466.621216,455.156677 460.088013,455.156677 
	C461.152496,448.096344 462.134613,441.582123 463.161957,434.768127 
	C469.961517,434.768127 476.670929,434.768127 484.394073,434.768127 
	C482.942871,441.618958 481.513367,448.367157 479.618835,455.136047 
z"/>
<path fill="#030303" opacity="1.000000" stroke="none" 
	d="
M827.507935,435.271973 
	C834.075439,439.125427 837.559875,444.646729 839.062256,451.845734 
	C822.314026,451.845734 805.856079,451.845734 789.393372,451.845734 
	C792.199829,434.713501 810.062683,426.801239 827.507935,435.271973 
z"/>
<path fill="#020202" opacity="1.000000" stroke="none" 
	d="
M634.384644,433.045959 
	C647.419983,429.353668 660.295898,435.121552 666.062500,446.977356 
	C672.073242,459.335358 668.547852,473.357178 657.371033,481.545807 
	C647.490234,488.785004 633.033936,487.823395 623.953613,478.923859 
	C610.065552,465.312408 614.135254,440.593414 634.384644,433.045959 
z"/>
</svg>