<svg version="1.1" id="Layer_1" xmlns="http://www.w3.org/2000/svg" xmlns:xlink="http://www.w3.org/1999/xlink" x="0px" y="0px"
	 width="100%" viewBox="0 0 1024 1024" enable-background="new 0 0 1024 1024" xml:space="preserve">
<path fill="#000000" opacity="1.000000" stroke="none" 
	d="
M449.000000,1025.000000 
	C299.697876,1025.000000 150.395721,1025.000000 1.046797,1025.000000 
	C1.046797,683.769165 1.046797,342.538361 1.046797,1.000000 
	C179.026733,1.000000 357.053650,1.000000 535.874023,1.275504 
	C531.993347,4.388498 527.223083,7.080125 522.661438,10.088102 
	C499.699158,25.229429 476.778534,40.434101 453.867828,55.653450 
	C429.874390,71.592033 405.943604,87.625160 381.920776,103.519249 
	C359.667908,118.242294 337.273895,132.752243 315.042145,147.506836 
	C282.251160,169.269318 249.548935,191.165543 216.505463,213.145813 
	C215.081665,215.081955 213.999283,216.902084 212.835175,218.668365 
	C197.366928,242.138184 181.915176,265.618958 166.402603,289.059448 
	C150.618042,312.910858 134.780243,336.727081 118.948814,360.547455 
	C94.338966,397.576080 69.681969,434.573425 45.111973,471.628448 
	C34.640636,487.420685 25.046036,503.854309 13.718718,518.998413 
	C5.728634,529.680725 2.439247,540.968018 4.198438,553.541565 
	C6.839602,572.418823 15.777191,588.636780 28.877174,602.225586 
	C52.200085,626.418762 75.951546,650.199890 99.601364,674.076538 
	C115.311165,689.937012 131.141571,705.678101 146.971069,721.419312 
	C148.081116,722.523193 149.526886,723.472351 150.993866,724.005432 
	C162.638580,728.237061 174.306473,732.407166 186.006073,736.484802 
	C198.320511,740.776672 210.677902,744.945374 223.030792,749.553833 
	C223.624557,751.777161 224.234207,753.605652 224.778992,755.453247 
	C231.269669,777.465332 239.807800,798.659424 251.843246,818.209229 
	C258.470673,828.974487 265.179932,840.144958 273.963989,849.049683 
	C316.501038,892.171692 359.768921,934.572449 402.744995,977.261841 
	C417.634094,992.051575 432.440704,1006.924500 447.234650,1021.809509 
	C448.058777,1022.638733 448.422180,1023.925964 449.000000,1025.000000 
z"/>
<path fill="#000000" opacity="1.000000" stroke="none" 
	d="
M565.000000,1.000000 
	C718.294739,1.000000 871.589539,1.000000 1024.936768,1.000000 
	C1024.936768,342.333344 1024.936768,683.666687 1024.936768,1025.000000 
	C960.889832,1025.000000 896.906189,1025.000000 832.468140,1024.610840 
	C834.653992,1016.249756 837.352234,1008.296631 839.923218,1000.302551 
	C847.748657,975.970459 855.489746,951.611267 863.332642,927.284851 
	C868.835449,910.216614 874.450867,893.184753 880.400635,876.068970 
	C902.387512,869.039673 923.975098,862.031738 945.596130,855.128723 
	C969.395386,847.530396 993.201904,839.952393 1017.066895,832.564880 
	C1020.760559,831.421448 1022.119873,829.930725 1022.112610,825.820862 
	C1021.962891,741.181152 1022.000000,656.541138 1022.000000,571.901184 
	C1022.000000,529.581177 1022.026672,487.261169 1021.920288,444.941467 
	C1021.915039,442.846375 1021.352539,440.202759 1020.025146,438.751465 
	C1012.190857,430.186249 1004.193542,421.758423 995.994080,413.540863 
	C951.509705,368.958038 906.986938,324.413208 862.372559,279.960571 
	C856.426819,274.036377 850.133362,268.398865 843.571289,263.167572 
	C826.390137,249.470718 807.360779,238.872375 786.870911,230.995010 
	C775.690552,226.696701 764.314941,222.906357 752.880859,218.555481 
	C752.190002,217.227859 751.491577,216.285263 751.123840,215.227676 
	C743.720947,193.937576 736.475464,172.591476 728.870361,151.374191 
	C727.546326,147.680252 725.254456,144.014709 722.517029,141.205994 
	C714.533325,133.014359 706.000488,125.361633 697.856079,117.322174 
	C665.525024,85.407616 633.380249,53.303009 600.894470,21.547110 
	C591.553040,12.415543 579.728088,7.084396 567.400879,2.963689 
	C566.484192,2.657269 565.794983,1.670495 565.000000,1.000000 
z"/>
<path fill="#55DDCA" opacity="1.000000" stroke="none" 
	d="
M880.016052,876.136658 
	C874.450867,893.184753 868.835449,910.216614 863.332642,927.284851 
	C855.489746,951.611267 847.748657,975.970459 839.923218,1000.302551 
	C837.352234,1008.296631 834.653992,1016.249756 832.006958,1024.610840 
	C704.645752,1025.000000 577.291565,1025.000000 449.468658,1025.000000 
	C448.422180,1023.925964 448.058777,1022.638733 447.234650,1021.809509 
	C432.440704,1006.924500 417.634094,992.051575 402.744995,977.261841 
	C359.768921,934.572449 316.501038,892.171692 273.963989,849.049683 
	C265.179932,840.144958 258.470673,828.974487 251.843246,818.209229 
	C239.807800,798.659424 231.269669,777.465332 224.778992,755.453247 
	C224.234207,753.605652 223.624557,751.777161 223.159973,749.556519 
	C223.274902,749.173157 223.497147,749.041260 223.823090,749.121216 
	C238.241776,754.220337 252.317627,759.287415 266.431244,764.247131 
	C286.502716,771.300659 306.622955,778.215637 326.683411,785.300110 
	C346.753876,792.388184 366.749969,799.686890 386.826569,806.757324 
	C413.165588,816.033264 439.570129,825.122986 465.911102,834.393311 
	C485.986145,841.458374 505.981110,848.750732 526.056763,855.813904 
	C551.929993,864.916870 577.870483,873.828735 603.739868,882.942383 
	C624.128967,890.125305 644.428467,897.562073 664.814331,904.754211 
	C690.994873,913.990723 717.200073,923.159302 743.466125,932.148254 
	C745.845703,932.962646 749.061646,933.038574 751.349548,932.117310 
	C760.770203,928.323975 769.977661,924.002319 779.271973,919.894165 
	C812.484924,905.214050 845.701355,890.541809 879.192627,875.928894 
	C879.651245,876.039734 879.833618,876.088196 880.016052,876.136658 
z"/>
<path fill="#00D2B8" opacity="1.000000" stroke="none" 
	d="
M564.531372,1.000000 
	C565.794983,1.670495 566.484192,2.657269 567.400879,2.963689 
	C579.728088,7.084396 591.553040,12.415543 600.894470,21.547110 
	C633.380249,53.303009 665.525024,85.407616 697.856079,117.322174 
	C706.000488,125.361633 714.533325,133.014359 722.517029,141.205994 
	C725.254456,144.014709 727.546326,147.680252 728.870361,151.374191 
	C736.475464,172.591476 743.720947,193.937576 751.123840,215.227676 
	C751.491577,216.285263 752.190002,217.227859 752.680176,218.695435 
	C752.360779,219.365021 752.143494,219.606400 751.591064,219.870239 
	C745.374207,218.575180 739.595642,216.655914 733.696106,216.151611 
	C718.139099,214.821762 702.539612,213.583832 686.938293,213.284378 
	C669.299866,212.945831 651.641113,213.888550 633.991028,213.896759 
	C497.668549,213.960159 361.346069,213.936249 225.023590,213.902023 
	C222.377930,213.901367 219.732376,213.445892 217.035431,213.127716 
	C216.984100,213.052811 216.808929,213.004822 216.808929,213.004822 
	C249.548935,191.165543 282.251160,169.269318 315.042145,147.506836 
	C337.273895,132.752243 359.667908,118.242294 381.920776,103.519249 
	C405.943604,87.625160 429.874390,71.592033 453.867828,55.653450 
	C476.778534,40.434101 499.699158,25.229429 522.661438,10.088102 
	C527.223083,7.080125 531.993347,4.388498 536.333740,1.275504 
	C545.354248,1.000000 554.708435,1.000000 564.531372,1.000000 
z"/>
<path fill="#0081C6" opacity="1.000000" stroke="none" 
	d="
M223.145721,749.170532 
	C210.677902,744.945374 198.320511,740.776672 186.006073,736.484802 
	C174.306473,732.407166 162.638580,728.237061 150.993866,724.005432 
	C149.526886,723.472351 148.081116,722.523193 146.971069,721.419312 
	C131.141571,705.678101 115.311165,689.937012 99.601364,674.076538 
	C75.951546,650.199890 52.200085,626.418762 28.877174,602.225586 
	C15.777191,588.636780 6.839602,572.418823 4.198438,553.541565 
	C2.439247,540.968018 5.728634,529.680725 13.718718,518.998413 
	C25.046036,503.854309 34.640636,487.420685 45.111973,471.628448 
	C69.681969,434.573425 94.338966,397.576080 118.948814,360.547455 
	C134.780243,336.727081 150.618042,312.910858 166.402603,289.059448 
	C181.915176,265.618958 197.366928,242.138184 212.835175,218.668365 
	C213.999283,216.902084 215.081665,215.081955 216.505478,213.145828 
	C216.808929,213.004822 216.984100,213.052811 217.004761,213.263718 
	C217.025436,213.474625 216.961411,213.751984 216.986084,214.235641 
	C217.029587,370.421143 217.080414,526.122986 217.031860,681.824829 
	C217.024811,704.460510 217.691956,726.986084 223.497147,749.041260 
	C223.497147,749.041260 223.274902,749.173157 223.145721,749.170532 
z"/>
<path fill="#00A4E4" opacity="1.000000" stroke="none" 
	d="
M751.974121,219.890930 
	C752.143494,219.606400 752.360779,219.365021 752.826660,219.026886 
	C764.314941,222.906357 775.690552,226.696701 786.870911,230.995010 
	C807.360779,238.872375 826.390137,249.470718 843.571289,263.167572 
	C850.133362,268.398865 856.426819,274.036377 862.372559,279.960571 
	C906.986938,324.413208 951.509705,368.958038 995.994080,413.540863 
	C1004.193542,421.758423 1012.190857,430.186249 1020.025146,438.751465 
	C1021.352539,440.202759 1021.915039,442.846375 1021.920288,444.941467 
	C1022.026672,487.261169 1022.000000,529.581177 1022.000000,571.901184 
	C1022.000000,656.541138 1021.962891,741.181152 1022.112610,825.820862 
	C1022.119873,829.930725 1020.760559,831.421448 1017.066895,832.564880 
	C993.201904,839.952393 969.395386,847.530396 945.596130,855.128723 
	C923.975098,862.031738 902.387512,869.039673 880.400635,876.068970 
	C879.833618,876.088196 879.651245,876.039734 879.185669,875.757202 
	C878.902527,875.523132 878.889282,875.178589 879.137146,874.908203 
	C879.916687,873.607056 880.503662,872.600708 880.971741,871.541870 
	C889.118408,853.113037 897.242737,834.674377 905.387817,816.244873 
	C915.485229,793.398071 925.660339,770.585144 935.592590,747.666748 
	C936.464783,745.654053 936.465149,742.731262 935.729248,740.631165 
	C914.905029,681.207214 893.919922,621.839600 872.992798,562.451721 
	C861.864441,530.871216 850.831055,499.257294 839.691101,467.680908 
	C818.188049,406.730133 796.653931,345.790283 775.102722,284.856506 
	C767.438049,263.185455 759.686218,241.545227 751.974121,219.890930 
z"/>
<path fill="#00D2B8" opacity="1.000000" stroke="none" 
	d="
M878.889282,875.178589 
	C878.889282,875.178589 878.902527,875.523132 878.909485,875.694824 
	C845.701355,890.541809 812.484924,905.214050 779.271973,919.894165 
	C769.977661,924.002319 760.770203,928.323975 751.349548,932.117310 
	C749.061646,933.038574 745.845703,932.962646 743.466125,932.148254 
	C717.200073,923.159302 690.994873,913.990723 664.814331,904.754211 
	C644.428467,897.562073 624.128967,890.125305 603.739868,882.942383 
	C577.870483,873.828735 551.929993,864.916870 526.056763,855.813904 
	C505.981110,848.750732 485.986145,841.458374 465.911102,834.393311 
	C439.570129,825.122986 413.165588,816.033264 386.826569,806.757324 
	C366.749969,799.686890 346.753876,792.388184 326.683411,785.300110 
	C306.622955,778.215637 286.502716,771.300659 266.431244,764.247131 
	C252.317627,759.287415 238.241776,754.220337 223.823090,749.121216 
	C217.691956,726.986084 217.024811,704.460510 217.031860,681.824829 
	C217.080414,526.122986 217.029587,370.421143 217.257507,214.462173 
	C219.048401,215.729279 220.601257,217.244766 222.135437,218.778931 
	C439.114716,435.755524 656.092102,652.734009 873.077820,869.704163 
	C874.958801,871.585144 876.949707,873.356201 878.889282,875.178589 
z"/>
<path fill="#0082C8" opacity="1.000000" stroke="none" 
	d="
M879.137146,874.908203 
	C876.949707,873.356201 874.958801,871.585144 873.077820,869.704163 
	C656.092102,652.734009 439.114716,435.755524 222.135437,218.778931 
	C220.601257,217.244766 219.048401,215.729279 217.232849,213.978516 
	C216.961411,213.751984 217.025436,213.474625 217.056107,213.338623 
	C219.732376,213.445892 222.377930,213.901367 225.023590,213.902023 
	C361.346069,213.936249 497.668549,213.960159 633.991028,213.896759 
	C651.641113,213.888550 669.299866,212.945831 686.938293,213.284378 
	C702.539612,213.583832 718.139099,214.821762 733.696106,216.151611 
	C739.595642,216.655914 745.374207,218.575180 751.591064,219.870224 
	C759.686218,241.545227 767.438049,263.185455 775.102722,284.856506 
	C796.653931,345.790283 818.188049,406.730133 839.691101,467.680908 
	C850.831055,499.257294 861.864441,530.871216 872.992798,562.451721 
	C893.919922,621.839600 914.905029,681.207214 935.729248,740.631165 
	C936.465149,742.731262 936.464783,745.654053 935.592590,747.666748 
	C925.660339,770.585144 915.485229,793.398071 905.387817,816.244873 
	C897.242737,834.674377 889.118408,853.113037 880.971741,871.541870 
	C880.503662,872.600708 879.916687,873.607056 879.137146,874.908203 
z"/>
</svg>