<svg version="1.1" id="Layer_1" xmlns="http://www.w3.org/2000/svg" xmlns:xlink="http://www.w3.org/1999/xlink" x="0px" y="0px"
	 width="100%" viewBox="0 0 640 640" enable-background="new 0 0 640 640" xml:space="preserve">
<path fill="#F0DB4F" opacity="1.000000" stroke="none" 
	d="
M1.000000,640.000000 
	C1.000000,427.639801 1.000000,215.279602 1.461255,2.459481 
	C212.403412,1.999500 422.884338,1.999223 633.365234,2.002506 
	C635.531128,2.002540 637.697083,2.049464 639.912537,2.525824 
	C639.974792,3.976936 639.998596,4.976722 639.998596,5.976508 
	C640.000122,215.805664 640.000305,425.634827 639.995911,635.463989 
	C639.995911,636.963074 639.934204,638.462097 639.451538,639.974976 
	C426.334473,639.992554 213.667236,639.996277 1.000000,640.000000 
M477.808197,344.942719 
	C500.198212,340.211243 515.418701,350.013611 525.659363,369.499420 
	C541.596802,359.261444 556.839478,349.469818 572.029541,339.711945 
	C571.801453,338.850372 571.772888,338.321442 571.537109,337.911804 
	C557.439819,313.413269 537.125916,297.585754 508.764465,293.075134 
	C495.172577,290.913483 481.514130,290.511414 467.958130,293.038300 
	C435.187744,299.146820 410.690491,316.132690 402.283203,349.526489 
	C393.645630,383.835083 401.430573,414.549500 430.007904,437.567383 
	C438.490479,444.399780 448.202301,449.936768 457.935944,454.925873 
	C469.775116,460.994171 482.356384,465.596405 494.379974,471.329224 
	C502.618225,475.257172 510.745300,479.582703 518.383728,484.557220 
	C525.738953,489.347290 529.570251,496.742401 529.955505,505.675110 
	C530.558655,519.658142 521.913696,530.933105 506.098450,534.775391 
	C480.134827,541.083374 457.547485,535.076721 439.855072,514.216858 
	C436.330139,510.060883 433.271118,505.509735 429.775299,500.844604 
	C413.589172,510.219971 397.533417,519.519897 381.247314,528.953186 
	C389.151245,544.354431 399.178925,557.221619 412.840912,566.618103 
	C452.590210,593.957092 495.811951,597.622314 540.064575,580.968811 
	C604.945618,556.552307 600.170227,474.383026 565.465210,445.219879 
	C557.095154,438.186340 548.212952,431.392517 538.613220,426.276886 
	C523.354858,418.145721 507.220398,411.674164 491.606934,404.186890 
	C484.123016,400.598022 476.640869,396.800751 469.771271,392.184998 
	C460.262787,385.796143 457.096619,376.155487 458.875854,365.035675 
	C460.550537,354.569092 467.177063,348.317474 477.808197,344.942719 
M288.622833,364.499634 
	C288.622040,408.650513 288.741364,452.802002 288.500763,496.951599 
	C288.461273,504.199615 287.433350,511.577209 285.788696,518.645142 
	C283.995453,526.351440 278.916565,532.111938 271.153473,534.446899 
	C254.336975,539.504700 239.114059,536.635193 228.567444,522.529053 
	C225.484100,518.405090 222.872299,513.928894 220.035812,509.619781 
	C219.256790,508.436249 218.446869,507.273071 217.562714,505.970276 
	C201.130524,515.924133 185.109177,525.629150 168.964661,535.408691 
	C179.825684,557.742798 195.508957,574.116821 218.211136,582.939697 
	C241.821411,592.115601 266.098297,592.645203 290.386322,586.276733 
	C319.586121,578.620300 338.032257,559.656921 344.885345,530.345032 
	C347.400208,519.588745 348.459442,508.268646 348.514587,497.197449 
	C348.840637,431.722443 348.675903,366.244965 348.676239,300.768341 
	C348.676239,298.979340 348.676239,297.190338 348.676239,295.229156 
	C328.396423,295.229156 308.700104,295.229156 288.623199,295.229156 
	C288.623199,318.221710 288.623199,340.860657 288.622833,364.499634 
z"/>
<path fill="#F8EFB1" opacity="1.000000" stroke="none" 
	d="
M639.862976,2.074497 
	C637.697083,2.049464 635.531128,2.002540 633.365234,2.002506 
	C422.884338,1.999223 212.403412,1.999500 1.461255,1.999776 
	C1.166667,1.666667 1.315919,1.056198 1.502793,1.044456 
	C2.830883,0.961004 4.166667,1.000000 5.500000,1.000000 
	C217.333328,1.000000 429.166656,1.000000 640.715576,1.515855 
	C640.241699,2.045973 640.052307,2.060235 639.862976,2.074497 
z"/>
<path fill="#F7ECA2" opacity="1.000000" stroke="none" 
	d="
M639.912537,2.525824 
	C640.052307,2.060235 640.241699,2.045973 640.715576,2.015855 
	C641.000000,215.000000 641.000000,428.000000 640.481323,640.739746 
	C639.942261,640.306641 639.921753,640.133911 639.901306,639.961182 
	C639.934204,638.462097 639.995911,636.963074 639.995911,635.463989 
	C640.000305,425.634827 640.000122,215.805664 639.998596,5.976508 
	C639.998596,4.976722 639.974792,3.976936 639.912537,2.525824 
z"/>
<path fill="#F2DF66" opacity="1.000000" stroke="none" 
	d="
M639.451538,639.974976 
	C639.921753,640.133911 639.942261,640.306641 639.981323,640.739746 
	C427.000000,641.000000 214.000000,641.000000 1.000000,640.500000 
	C213.667236,639.996277 426.334473,639.992554 639.451538,639.974976 
z"/>
<path fill="#333430" opacity="1.000000" stroke="none" 
	d="
M477.411011,345.041168 
	C467.177063,348.317474 460.550537,354.569092 458.875854,365.035675 
	C457.096619,376.155487 460.262787,385.796143 469.771271,392.184998 
	C476.640869,396.800751 484.123016,400.598022 491.606934,404.186890 
	C507.220398,411.674164 523.354858,418.145721 538.613220,426.276886 
	C548.212952,431.392517 557.095154,438.186340 565.465210,445.219879 
	C600.170227,474.383026 604.945618,556.552307 540.064575,580.968811 
	C495.811951,597.622314 452.590210,593.957092 412.840912,566.618103 
	C399.178925,557.221619 389.151245,544.354431 381.247314,528.953186 
	C397.533417,519.519897 413.589172,510.219971 429.775299,500.844604 
	C433.271118,505.509735 436.330139,510.060883 439.855072,514.216858 
	C457.547485,535.076721 480.134827,541.083374 506.098450,534.775391 
	C521.913696,530.933105 530.558655,519.658142 529.955505,505.675110 
	C529.570251,496.742401 525.738953,489.347290 518.383728,484.557220 
	C510.745300,479.582703 502.618225,475.257172 494.379974,471.329224 
	C482.356384,465.596405 469.775116,460.994171 457.935944,454.925873 
	C448.202301,449.936768 438.490479,444.399780 430.007904,437.567383 
	C401.430573,414.549500 393.645630,383.835083 402.283203,349.526489 
	C410.690491,316.132690 435.187744,299.146820 467.958130,293.038300 
	C481.514130,290.511414 495.172577,290.913483 508.764465,293.075134 
	C537.125916,297.585754 557.439819,313.413269 571.537109,337.911804 
	C571.772888,338.321442 571.801453,338.850372 572.029541,339.711945 
	C556.839478,349.469818 541.596802,359.261444 525.659363,369.499420 
	C515.418701,350.013611 500.198212,340.211243 477.411011,345.041168 
z"/>
<path fill="#333430" opacity="1.000000" stroke="none" 
	d="
M288.623016,363.999634 
	C288.623199,340.860657 288.623199,318.221710 288.623199,295.229156 
	C308.700104,295.229156 328.396423,295.229156 348.676239,295.229156 
	C348.676239,297.190338 348.676239,298.979340 348.676239,300.768341 
	C348.675903,366.244965 348.840637,431.722443 348.514587,497.197449 
	C348.459442,508.268646 347.400208,519.588745 344.885345,530.345032 
	C338.032257,559.656921 319.586121,578.620300 290.386322,586.276733 
	C266.098297,592.645203 241.821411,592.115601 218.211136,582.939697 
	C195.508957,574.116821 179.825684,557.742798 168.964661,535.408691 
	C185.109177,525.629150 201.130524,515.924133 217.562714,505.970276 
	C218.446869,507.273071 219.256790,508.436249 220.035812,509.619781 
	C222.872299,513.928894 225.484100,518.405090 228.567444,522.529053 
	C239.114059,536.635193 254.336975,539.504700 271.153473,534.446899 
	C278.916565,532.111938 283.995453,526.351440 285.788696,518.645142 
	C287.433350,511.577209 288.461273,504.199615 288.500763,496.951599 
	C288.741364,452.802002 288.622040,408.650513 288.623016,363.999634 
z"/>
</svg>